<svg data-v-decfdd8a="" version="1.0" xmlns="http://www.w3.org/2000/svg" xmlns:xlink="http://www.w3.org/1999/xlink" width="100%" height="100%" viewBox="0 0 340.000000 250.000000" preserveAspectRatio="xMidYMid meet" color-interpolation-filters="sRGB" style="margin: auto;"> <rect data-v-decfdd8a="" x="0" y="0" width="100%" height="100%" fill="#feffff" fill-opacity="1" class="background"></rect> <rect data-v-decfdd8a="" x="0" y="0" width="100%" height="100%" fill="url(#watermark)" fill-opacity="1" class="watermarklayer"></rect> <g data-v-decfdd8a="" fill="#4dc9ff" class="iconlinesvg-g iconlinesvg" transform="translate(80.31040954589844,96.0669995546341)"><g class="tp-name" transform="translate(0,0)"><g transform="translate(0, 1.6285418276716221)"><g><g class="imagesvg"><g><rect fill="#4dc9ff" fill-opacity="0" stroke-width="2" x="0" y="0" width="32.003951105074705" height="40.45193273809938" class="image-rect"></rect> <svg x="0" y="0" width="32.003951105074705" height="40.45193273809938" filtersec="colorsb6663535875" class="image-svg-svg primary" style="overflow: visible;"><svg xmlns="http://www.w3.org/2000/svg" viewBox="-223 327.0999755859375 148.5 187.70001220703125"><path fill="#4dc9ff" d="M-223 357.3h63v157.5h-63z"></path><circle cx="-145.8" cy="398.4" r="71.3" fill="#ffde52"></circle></svg></svg> <!----></g></g></g></g><g transform="translate(36, 0)"><g data-gra="path-name" fill="#4dc9ff" transform="scale(1)"><path d="M7.75-14.39L7.75-14.39L7.75 0L3.50 0L3.50-24.71L7.56-24.71L7.56-20.47Q10.33-25.45 14.57-25.45L14.57-25.45Q14.94-25.45 15.31-25.27L15.31-25.27Q15.49-25.27 15.68-25.27L15.68-25.27L15.68-20.84L14.02-20.84Q8.11-20.47 7.75-14.39Z" transform="translate(-3.504098360655738, 33.75)"></path></g></g><g transform="translate(52, 0)"><g data-gra="path-name" fill="#4dc9ff" transform="scale(1)"><path d="M1.66-12.36L1.66-12.36Q2.40-24.90 13.09-25.45L13.09-25.45Q23.79-24.90 24.53-12.36L24.53-12.36Q23.79 0 13.09 0.37L13.09 0.37Q2.40 0 1.66-12.36ZM5.90-12.36L5.90-12.36Q6.45-3.14 13.09-2.95L13.09-2.95Q19.73-3.14 20.29-12.36L20.29-12.36Q19.73-21.58 13.09-21.76L13.09-21.76Q6.45-21.58 5.90-12.36Z" transform="translate(-1.6598360655737703, 33.75)"></path></g></g><g transform="translate(78, 0)"><g data-gra="path-name" fill="#4dc9ff" transform="scale(1)"><path d="M6.27-12.36L6.27-12.36Q6.45-2.95 12.91-2.77L12.91-2.77Q19.36-3.32 19.55-11.07L19.55-11.07Q19.73-21.58 12.91-21.58L12.91-21.58Q6.09-21.58 6.27-12.36ZM19.55-24.71L23.42-24.71L23.42-2.03Q23.79 9.96 12.17 9.96L12.17 9.96Q3.50 9.96 2.58 2.58L2.58 2.58L6.82 2.58Q7.56 6.64 12.36 6.64L12.36 6.64Q19.73 6.64 19.36-1.66L19.36-1.66L19.36-2.77L19.36-2.58Q17.15 0.37 12.73 0.37L12.73 0.37Q2.40 0 1.84-13.09L1.84-13.09Q2.40-24.90 12.17-25.45L12.17-25.45Q16.78-25.45 19.55-21.21L19.55-21.21L19.55-24.71Z" transform="translate(-1.844262295081967, 33.75)"></path></g></g><g transform="translate(103, 0)"><g data-gra="path-name" fill="#4dc9ff" transform="scale(1)"><path d="M7.75-14.39L7.75-14.39L7.75 0L3.50 0L3.50-24.71L7.56-24.71L7.56-20.47Q10.33-25.45 14.57-25.45L14.57-25.45Q14.94-25.45 15.31-25.27L15.31-25.27Q15.49-25.27 15.68-25.27L15.68-25.27L15.68-20.84L14.02-20.84Q8.11-20.47 7.75-14.39Z" transform="translate(-3.504098360655738, 33.75)"></path></g></g><g transform="translate(119, 0)"><g data-gra="path-name" fill="#4dc9ff" transform="scale(1)"><path d="M6.82-17.15L6.82-17.15L2.95-17.15Q3.14-25.45 13.09-25.45L13.09-25.45Q21.95-25.08 22.13-18.44L22.13-18.44L22.13-4.24Q22.13-2.77 23.61-2.77L23.61-2.77Q23.79-2.77 24.16-2.77L24.16-2.77Q24.71-2.95 25.08-2.95L25.08-2.95L25.08 0Q24.71 0 24.16 0L24.16 0Q23.24 0.18 22.68 0.18L22.68 0.18Q18.26 0.18 18.44-3.32L18.44-3.32Q14.75 0.37 9.41 0.37L9.41 0.37Q2.03 0 1.66-6.45L1.66-6.45Q1.84-13.09 9.22-14.20L9.22-14.20L16.05-14.94Q18.26-15.31 18.26-17.89L18.26-17.89Q18.26-21.95 12.36-21.95L12.36-21.95Q7.19-21.95 6.82-17.15ZM18.07-8.48L18.07-8.48L18.07-12.54Q16.60-11.62 11.25-10.88L11.25-10.88Q6.09-10.51 6.09-7.01L6.09-7.01Q6.09-2.77 10.33-2.77L10.33-2.77Q17.52-3.32 18.07-8.48Z" transform="translate(-1.6598360655737703, 33.75)"></path></g></g><g transform="translate(146, 0)"><g data-gra="path-name" fill="#4dc9ff" transform="scale(1)"><path d="M7.19 0L2.95 0L2.95-24.71L7.01-24.71L7.01-21.21Q9.77-25.45 14.57-25.45L14.57-25.45Q18.81-25.45 20.84-21.58L20.84-21.58Q21.02-21.39 21.02-21.39L21.02-21.39Q24.34-25.64 28.59-25.45L28.59-25.45Q36.15-24.90 36.33-16.97L36.33-16.97L36.33 0L32.09 0L32.09-15.86Q32.27-21.76 27.48-21.58L27.48-21.58Q22.32-21.02 21.76-14.94L21.76-14.94L21.76 0L17.52 0L17.52-16.97Q17.52-21.58 13.65-21.58L13.65-21.58Q7.38-21.21 7.19-13.46L7.19-13.46L7.19 0Z" transform="translate(-2.9508196721311473, 33.75)"></path></g></g></g> <g data-gra="path-slogan" fill-rule="" class="tp-slogan" fill="#4dc9ff" transform="translate(5,48.081459045410156)"><rect x="0" height="1" y="3.580000400543213" width="40.07958984375"></rect> <rect height="1" y="3.580000400543213" width="40.07958984375" x="129.29959106445312"></rect> <g transform="translate(43.07958984375,0)"><g transform="scale(1)"><path d="M1.08-7.87L1.08 0L3.10 0C3.69 0 4.21-0.09 4.67-0.27C5.12-0.45 5.51-0.71 5.82-1.05C6.13-1.39 6.37-1.81 6.53-2.30C6.69-2.79 6.77-3.35 6.77-3.97C6.77-5.23 6.45-6.19 5.82-6.86C5.19-7.54 4.26-7.87 3.05-7.87ZM2.98-0.82L2.08-0.82L2.08-7.06L2.98-7.06C3.90-7.06 4.59-6.79 5.05-6.26C5.51-5.74 5.74-4.97 5.74-3.97C5.74-2.97 5.51-2.20 5.05-1.64C4.59-1.09 3.90-0.82 2.98-0.82ZM8.46-7.87L8.46 0L13.12 0L13.12-0.85L9.46-0.85L9.46-3.71L12.44-3.71L12.44-4.56L9.46-4.56L9.46-7.03L13.00-7.03L13.00-7.87ZM14.78-7.87L14.78 0L15.71 0L15.71-4.33C15.71-4.68 15.69-5.07 15.66-5.50C15.63-5.92 15.60-6.31 15.58-6.66L15.62-6.66L16.25-4.91L17.77-0.79L18.34-0.79L19.85-4.91L20.48-6.66L20.53-6.66C20.50-6.31 20.47-5.92 20.44-5.50C20.41-5.07 20.40-4.68 20.40-4.33L20.40 0L21.35 0L21.35-7.87L20.17-7.87L18.66-3.65L18.11-2.04L18.06-2.04L17.48-3.65L15.96-7.87ZM26.41 0.14C26.91 0.14 27.36 0.05 27.77-0.14C28.19-0.34 28.54-0.61 28.84-0.97C29.14-1.32 29.37-1.75 29.54-2.26C29.70-2.77 29.78-3.34 29.78-3.97C29.78-4.60 29.70-5.16 29.54-5.66C29.37-6.16 29.14-6.58 28.84-6.93C28.54-7.28 28.19-7.55 27.77-7.73C27.36-7.92 26.91-8.02 26.41-8.02C25.92-8.02 25.46-7.92 25.05-7.74C24.64-7.56 24.28-7.29 23.99-6.94C23.69-6.59 23.46-6.17 23.30-5.67C23.13-5.17 23.05-4.60 23.05-3.97C23.05-3.34 23.13-2.77 23.30-2.26C23.46-1.75 23.69-1.32 23.99-0.97C24.28-0.61 24.64-0.34 25.05-0.14C25.46 0.05 25.92 0.14 26.41 0.14ZM26.41-0.73C26.06-0.73 25.74-0.81 25.46-0.96C25.17-1.11 24.93-1.33 24.73-1.61C24.52-1.90 24.36-2.24 24.25-2.63C24.14-3.03 24.08-3.48 24.08-3.97C24.08-4.46 24.14-4.90 24.25-5.29C24.36-5.68 24.52-6.02 24.73-6.29C24.93-6.56 25.17-6.77 25.46-6.92C25.74-7.07 26.06-7.14 26.41-7.14C26.76-7.14 27.08-7.07 27.37-6.92C27.65-6.77 27.89-6.56 28.10-6.29C28.30-6.02 28.46-5.68 28.57-5.29C28.68-4.90 28.74-4.46 28.74-3.97C28.74-3.48 28.68-3.03 28.57-2.63C28.46-2.24 28.30-1.90 28.10-1.61C27.89-1.33 27.65-1.11 27.37-0.96C27.08-0.81 26.76-0.73 26.41-0.73ZM31.48-7.87L31.48 0L32.42 0L32.42-4.12C32.42-4.53 32.41-4.95 32.38-5.36C32.35-5.77 32.32-6.18 32.29-6.58L32.34-6.58L33.19-4.96L36.05 0L37.08 0L37.08-7.87L36.13-7.87L36.13-3.80C36.13-3.39 36.15-2.97 36.17-2.54C36.20-2.11 36.23-1.70 36.25-1.30L36.20-1.30L35.35-2.93L32.51-7.87ZM39.26-1.72L38.66-1.02C39.01-0.66 39.42-0.38 39.89-0.17C40.36 0.04 40.87 0.14 41.42 0.14C41.84 0.14 42.21 0.09 42.54-0.03C42.87-0.15 43.15-0.31 43.38-0.51C43.61-0.71 43.79-0.95 43.91-1.22C44.04-1.50 44.10-1.79 44.10-2.10C44.10-2.39 44.06-2.64 43.97-2.86C43.89-3.08 43.78-3.27 43.63-3.44C43.49-3.60 43.32-3.75 43.12-3.87C42.92-3.99 42.70-4.10 42.48-4.20L41.36-4.68C41.20-4.74 41.05-4.81 40.90-4.89C40.74-4.97 40.60-5.05 40.48-5.15C40.35-5.25 40.25-5.37 40.17-5.50C40.09-5.63 40.06-5.80 40.06-5.99C40.06-6.35 40.19-6.63 40.46-6.83C40.73-7.04 41.08-7.14 41.52-7.14C41.89-7.14 42.22-7.07 42.51-6.94C42.80-6.81 43.07-6.63 43.31-6.40L43.85-7.04C43.57-7.33 43.23-7.57 42.83-7.75C42.43-7.93 41.99-8.02 41.52-8.02C41.16-8.02 40.83-7.96 40.53-7.86C40.23-7.76 39.97-7.61 39.75-7.42C39.53-7.23 39.36-7.01 39.23-6.76C39.11-6.50 39.05-6.22 39.05-5.93C39.05-5.64 39.10-5.39 39.19-5.17C39.29-4.95 39.41-4.76 39.56-4.60C39.72-4.44 39.89-4.30 40.08-4.19C40.27-4.08 40.46-3.98 40.64-3.90L41.77-3.41C41.96-3.32 42.13-3.24 42.29-3.16C42.45-3.08 42.59-2.99 42.70-2.89C42.82-2.79 42.91-2.67 42.98-2.53C43.05-2.39 43.08-2.22 43.08-2.02C43.08-1.63 42.94-1.32 42.65-1.09C42.36-0.85 41.96-0.73 41.44-0.73C41.03-0.73 40.63-0.82 40.25-1.00C39.87-1.18 39.54-1.42 39.26-1.72ZM47.04-7.03L47.04 0L48.05 0L48.05-7.03L50.42-7.03L50.42-7.87L44.66-7.87L44.66-7.03ZM52.84-4.14L52.84-7.07L54.16-7.07C54.77-7.07 55.24-6.96 55.57-6.76C55.90-6.55 56.06-6.18 56.06-5.66C56.06-5.15 55.90-4.77 55.57-4.52C55.24-4.27 54.77-4.14 54.16-4.14ZM56.16 0L57.29 0L55.30-3.43C55.83-3.57 56.26-3.82 56.58-4.19C56.90-4.56 57.06-5.05 57.06-5.66C57.06-6.07 56.99-6.42 56.86-6.70C56.72-6.98 56.53-7.20 56.29-7.38C56.04-7.56 55.75-7.68 55.41-7.76C55.07-7.83 54.70-7.87 54.30-7.87L51.84-7.87L51.84 0L52.84 0L52.84-3.32L54.26-3.32ZM62.04-3.20L59.68-3.20L60.05-4.40C60.19-4.84 60.33-5.28 60.46-5.72C60.58-6.15 60.71-6.60 60.83-7.06L60.88-7.06C61.00-6.60 61.13-6.15 61.26-5.72C61.39-5.28 61.52-4.84 61.67-4.40ZM62.29-2.40L63.04 0L64.10 0L61.44-7.87L60.31-7.87L57.65 0L58.67 0L59.42-2.40ZM66.37-7.03L66.37 0L67.38 0L67.38-7.03L69.76-7.03L69.76-7.87L64.00-7.87L64.00-7.03ZM73.79 0.14C74.28 0.14 74.74 0.05 75.15-0.14C75.56-0.34 75.92-0.61 76.22-0.97C76.52-1.32 76.75-1.75 76.91-2.26C77.08-2.77 77.16-3.34 77.16-3.97C77.16-4.60 77.08-5.16 76.91-5.66C76.75-6.16 76.52-6.58 76.22-6.93C75.92-7.28 75.56-7.55 75.15-7.73C74.74-7.92 74.28-8.02 73.79-8.02C73.29-8.02 72.84-7.92 72.43-7.74C72.01-7.56 71.66-7.29 71.36-6.94C71.07-6.59 70.84-6.17 70.67-5.67C70.51-5.17 70.43-4.60 70.43-3.97C70.43-3.34 70.51-2.77 70.67-2.26C70.84-1.75 71.07-1.32 71.36-0.97C71.66-0.61 72.01-0.34 72.43-0.14C72.84 0.05 73.29 0.14 73.79 0.14ZM73.79-0.73C73.44-0.73 73.12-0.81 72.83-0.96C72.55-1.11 72.31-1.33 72.10-1.61C71.90-1.90 71.74-2.24 71.63-2.63C71.52-3.03 71.46-3.48 71.46-3.97C71.46-4.46 71.52-4.90 71.63-5.29C71.74-5.68 71.90-6.02 72.10-6.29C72.31-6.56 72.55-6.77 72.83-6.92C73.12-7.07 73.44-7.14 73.79-7.14C74.14-7.14 74.46-7.07 74.74-6.92C75.03-6.77 75.27-6.56 75.47-6.29C75.68-6.02 75.84-5.68 75.95-5.29C76.06-4.90 76.12-4.46 76.12-3.97C76.12-3.48 76.06-3.03 75.95-2.63C75.84-2.24 75.68-1.90 75.47-1.61C75.27-1.33 75.03-1.11 74.74-0.96C74.46-0.81 74.14-0.73 73.79-0.73ZM79.85-4.14L79.85-7.07L81.17-7.07C81.78-7.07 82.26-6.96 82.58-6.76C82.91-6.55 83.08-6.18 83.08-5.66C83.08-5.15 82.91-4.77 82.58-4.52C82.26-4.27 81.78-4.14 81.17-4.14ZM83.17 0L84.30 0L82.31-3.43C82.84-3.57 83.27-3.82 83.59-4.19C83.91-4.56 84.07-5.05 84.07-5.66C84.07-6.07 84.00-6.42 83.87-6.70C83.73-6.98 83.54-7.20 83.30-7.38C83.05-7.56 82.76-7.68 82.42-7.76C82.08-7.83 81.71-7.87 81.31-7.87L78.85-7.87L78.85 0L79.85 0L79.85-3.32L81.28-3.32Z" transform="translate(-1.08, 8.016)"></path></g></g></g></g><defs v-gra="od"></defs></svg>